# xmcd CD database file
#
# Track frame offsets:
#	150
#	22940
#	39452
#	62182
#
# Disc length: 1130 seconds
#
# Revision: 1
# Processed by: cddbd v1.5.1PL2 Copyright (c) Steve Scherf et al.
# Submitted via: CDex 1.51
#
DISCID=2a046804
DTITLE=千 - たからもの
DYEAR=2005
DGENRE=JPop
TTITLE0=たからもの
TTITLE1=青空
TTITLE2=たからもの（another side）
TTITLE3=たからもの（Instrumental）
EXTD=YEAR: 2005
EXTT0=
EXTT1=
EXTT2=
EXTT3=
PLAYORDER=
